<svg width="207" height="95" viewBox="0 0 207 95" fill="none" xmlns="http://www.w3.org/2000/svg">
<g filter="url(#filter0_d_77_726)">
<rect x="5" y="5" width="196.667" height="80" rx="18.2857" fill="#ED0F29"/>
<rect x="2.71429" y="2.71429" width="201.238" height="84.5714" rx="20.5714" stroke="white" stroke-width="4.57143"/>
</g>
<rect x="5" y="5" width="196.667" height="71.6667" rx="18.2857" fill="#FE4B60"/>
<g filter="url(#filter1_d_77_726)">
<path d="M50.6362 33.7978C50.6362 32.6598 50.6503 31.5854 50.6786 30.5746C52.0286 30.511 55.3013 30.4791 60.4967 30.4791C64.6034 30.4791 67.5227 30.511 69.2545 30.5746C69.3676 30.5746 69.4665 30.617 69.5513 30.7018C69.6362 30.7866 69.6786 30.8856 69.6786 30.9987C69.7068 32.5961 69.721 33.7978 69.721 34.6036C69.721 35.7557 69.7068 36.816 69.6786 37.7844C69.2191 37.8056 67.5086 37.8303 64.5469 37.8586C64.5751 39.3854 64.5893 41.1985 64.5893 43.2978C64.5893 47.2561 64.5327 51.4972 64.4196 56.021C63.0766 56.0846 61.8397 56.1164 60.7087 56.1164C59.5424 56.1164 58.0934 56.0846 56.3616 56.021C56.2485 56.021 56.1496 55.9786 56.0647 55.8938C55.9799 55.8089 55.9375 55.71 55.9375 55.5969C55.8244 50.2814 55.7679 46.1817 55.7679 43.2978C55.7679 41.9901 55.782 40.1629 55.8103 37.8162C54.1845 37.7809 52.6153 37.742 51.1027 37.6996C50.9896 37.6996 50.8906 37.6572 50.8058 37.5723C50.721 37.4875 50.6786 37.3886 50.6786 37.2755C50.6503 35.6497 50.6362 34.4905 50.6362 33.7978ZM73.197 43.2978C73.197 39.3394 73.2535 35.0984 73.3666 30.5746C74.7096 30.511 75.9466 30.4791 77.0775 30.4791C78.2438 30.4791 79.6929 30.511 81.4246 30.5746C81.5377 30.5746 81.6367 30.617 81.7215 30.7018C81.8063 30.7866 81.8487 30.8856 81.8487 30.9987C81.9618 36.3142 82.0184 40.4139 82.0184 43.2978C82.0184 47.2561 81.9618 51.4972 81.8487 56.021C80.5057 56.0846 79.2688 56.1164 78.1378 56.1164C76.9715 56.1164 75.5225 56.0846 73.7907 56.021C73.6776 56.021 73.5787 55.9786 73.4938 55.8938C73.409 55.8089 73.3666 55.71 73.3666 55.5969C73.2535 50.2814 73.197 46.1817 73.197 43.2978ZM95.2913 43.2978C95.2913 44.9801 95.316 46.8461 95.3655 48.896H96.0865C96.2985 48.896 96.4788 48.8748 96.6272 48.8324C96.7827 48.7829 96.9417 48.6945 97.1043 48.5673C97.2669 48.4401 97.4012 48.2492 97.5072 47.9948C97.6132 47.7332 97.7087 47.401 97.7935 46.9981C97.8783 46.5881 97.9419 46.0757 97.9843 45.4607C98.0267 44.8387 98.0479 44.1142 98.0479 43.2872C98.0479 42.3047 98.0126 41.4671 97.9419 40.7743C97.8783 40.0816 97.7935 39.5374 97.6875 39.1415C97.5885 38.7386 97.4471 38.4276 97.2633 38.2085C97.0866 37.9823 96.9099 37.8374 96.7332 37.7738C96.5636 37.7102 96.348 37.6784 96.0865 37.6784H95.3761C95.3195 40.0251 95.2913 41.8982 95.2913 43.2978ZM86.8939 43.2978C86.8939 41.8841 86.9081 39.8342 86.9363 37.1482C86.9646 34.4622 86.9788 32.4124 86.9788 30.9987C90.1101 30.518 92.8668 30.2777 95.2488 30.2777C96.7332 30.2777 98.0585 30.4085 99.2248 30.67C100.391 30.9315 101.462 31.3733 102.437 31.9953C103.42 32.6103 104.233 33.4126 104.876 34.4021C105.519 35.3847 106.018 36.6216 106.371 38.1131C106.732 39.5974 106.912 41.3221 106.912 43.2872C106.912 44.4535 106.855 45.5314 106.742 46.521C106.636 47.5035 106.481 48.3906 106.276 49.1823C106.071 49.9739 105.809 50.6878 105.491 51.324C105.173 51.9602 104.82 52.5186 104.431 52.9992C104.042 53.4728 103.593 53.8899 103.084 54.2503C102.582 54.6108 102.056 54.9077 101.504 55.141C100.953 55.3742 100.338 55.5651 99.6596 55.7135C98.9881 55.8549 98.3059 55.9574 97.6132 56.021C96.9205 56.0775 96.1607 56.1058 95.3337 56.1058C95.0509 56.1058 94.7434 56.0987 94.4112 56.0846C94.0861 56.0775 93.7998 56.0705 93.5524 56.0634C93.305 56.0563 92.9693 56.0387 92.5452 56.0104C92.121 55.9821 91.8136 55.9644 91.6227 55.9574C91.4319 55.9432 91.0749 55.915 90.5519 55.8726C90.0359 55.8231 89.7107 55.7948 89.5764 55.7877C89.4492 55.7736 89.0781 55.7418 88.4631 55.6923C87.8482 55.6358 87.4947 55.604 87.4029 55.5969C87.2898 55.5969 87.1908 55.5545 87.106 55.4697C87.0212 55.3848 86.9788 55.2859 86.9788 55.1728C86.9788 53.8651 86.9646 51.9178 86.9363 49.3307C86.9081 46.7437 86.8939 44.7327 86.8939 43.2978ZM109.317 55.6711C109.317 55.558 109.384 55.1162 109.518 54.3458C109.893 52.0203 110.321 49.6134 110.801 47.1253C111.282 44.6302 111.904 41.5377 112.667 37.848C113.431 34.1512 113.929 31.7267 114.162 30.5746C115.576 30.511 117.52 30.4791 119.994 30.4791C122.298 30.4791 124.313 30.511 126.037 30.5746C126.15 30.5746 126.256 30.617 126.355 30.7018C126.454 30.7796 126.514 30.8785 126.536 30.9987C126.847 32.5749 127.373 35.1514 128.115 38.728C128.865 42.3047 129.501 45.4678 130.024 48.2174C130.554 50.96 131.006 53.5612 131.381 56.021C130.045 56.0846 128.815 56.1164 127.691 56.1164C125.889 56.1164 124.503 56.0846 123.535 56.021C123.415 56.0139 123.305 55.9715 123.206 55.8938C123.115 55.8089 123.058 55.71 123.037 55.5969C122.719 53.9711 122.461 52.5575 122.263 51.3558H118.329C118.103 52.8685 117.831 54.4235 117.513 56.021C116.156 56.0846 114.986 56.1164 114.003 56.1164C112.83 56.1164 111.384 56.0846 109.667 56.021C109.561 56.021 109.476 55.9892 109.412 55.9256C109.349 55.8549 109.317 55.7701 109.317 55.6711ZM119.04 45.8424H121.425C121.256 44.6832 121.026 43.0327 120.736 40.891C120.446 38.7422 120.238 37.2224 120.11 36.3318C119.969 37.484 119.782 39.138 119.548 41.2939C119.315 43.4427 119.146 44.9589 119.04 45.8424ZM134.645 43.2978C134.645 39.3394 134.702 35.0984 134.815 30.5746C136.158 30.511 137.395 30.4791 138.526 30.4791C139.692 30.4791 141.141 30.511 142.873 30.5746C142.986 30.5746 143.085 30.617 143.17 30.7018C143.254 30.7866 143.297 30.8856 143.297 30.9987C143.304 31.3309 143.307 31.8292 143.307 32.4937C143.307 33.2005 143.254 35.5331 143.148 39.4914C143.247 39.4914 143.399 39.4914 143.604 39.4914C143.816 39.4844 143.975 39.4808 144.081 39.4808C144.343 38.6892 144.813 37.3143 145.492 35.3564C146.17 33.3913 146.676 31.9034 147.008 30.8926C147.05 30.7725 147.135 30.6735 147.262 30.5958C147.389 30.518 147.52 30.4756 147.654 30.4685C148.722 30.3979 149.856 30.3625 151.058 30.3625C152.578 30.3625 153.988 30.4403 155.288 30.5958C154.419 34.3067 153.224 37.6572 151.705 40.6471C150.871 42.0679 149.768 42.8171 148.397 42.8949V42.9585C149.118 43.0009 149.771 43.22 150.358 43.6159C150.945 44.0046 151.436 44.5348 151.832 45.2063C153.076 47.659 154.256 51.2639 155.373 56.021C154.073 56.1765 152.592 56.2543 150.931 56.2543C149.729 56.2543 148.595 56.2189 147.527 56.1482C147.393 56.1412 147.262 56.0987 147.135 56.021C147.008 55.9432 146.923 55.8443 146.88 55.7241C146.188 53.6107 145.205 50.2496 143.933 45.641H143.117C143.124 45.8742 143.159 47.0794 143.223 49.2565C143.286 51.4265 143.318 53.077 143.318 54.2079C143.318 54.6108 143.311 55.2152 143.297 56.021C141.954 56.0846 140.717 56.1164 139.586 56.1164C138.42 56.1164 136.971 56.0846 135.239 56.021C135.126 56.021 135.027 55.9786 134.942 55.8938C134.857 55.8089 134.815 55.71 134.815 55.5969C134.702 50.2814 134.645 46.1817 134.645 43.2978Z" fill="white"/>
</g>
<defs>
<filter id="filter0_d_77_726" x="0.428589" y="0.428467" width="205.809" height="93.7145" filterUnits="userSpaceOnUse" color-interpolation-filters="sRGB">
<feFlood flood-opacity="0" result="BackgroundImageFix"/>
<feColorMatrix in="SourceAlpha" type="matrix" values="0 0 0 0 0 0 0 0 0 0 0 0 0 0 0 0 0 0 127 0" result="hardAlpha"/>
<feOffset dy="4.57143"/>
<feComposite in2="hardAlpha" operator="out"/>
<feColorMatrix type="matrix" values="0 0 0 0 0 0 0 0 0 0 0 0 0 0 0 0 0 0 0.15 0"/>
<feBlend mode="normal" in2="BackgroundImageFix" result="effect1_dropShadow_77_726"/>
<feBlend mode="normal" in="SourceGraphic" in2="effect1_dropShadow_77_726" result="shape"/>
</filter>
<filter id="filter1_d_77_726" x="50.6361" y="30.2776" width="104.737" height="28.2623" filterUnits="userSpaceOnUse" color-interpolation-filters="sRGB">
<feFlood flood-opacity="0" result="BackgroundImageFix"/>
<feColorMatrix in="SourceAlpha" type="matrix" values="0 0 0 0 0 0 0 0 0 0 0 0 0 0 0 0 0 0 127 0" result="hardAlpha"/>
<feOffset dy="2.28571"/>
<feComposite in2="hardAlpha" operator="out"/>
<feColorMatrix type="matrix" values="0 0 0 0 0 0 0 0 0 0 0 0 0 0 0 0 0 0 0.15 0"/>
<feBlend mode="normal" in2="BackgroundImageFix" result="effect1_dropShadow_77_726"/>
<feBlend mode="normal" in="SourceGraphic" in2="effect1_dropShadow_77_726" result="shape"/>
</filter>
</defs>
</svg>
