<svg width="207" height="95" viewBox="0 0 207 95" fill="none" xmlns="http://www.w3.org/2000/svg">
<g filter="url(#filter0_d_138_29)">
<rect x="5" y="5" width="196.667" height="80" rx="18.2857" fill="#ED0F29"/>
<rect x="2.71429" y="2.71429" width="201.238" height="84.5714" rx="20.5714" stroke="white" stroke-width="4.57143"/>
</g>
<rect x="5" y="5" width="196.667" height="71.6667" rx="18.2857" fill="#FE4B60"/>
<g filter="url(#filter1_d_138_29)">
<path d="M46.442 55.7665L47.481 48.1008C50.6053 49.0833 53.111 49.5746 54.9983 49.5746C55.7334 49.5746 56.2919 49.4226 56.6735 49.1187C57.0623 48.8076 57.2567 48.4613 57.2567 48.0796C57.2567 47.9382 57.2284 47.811 57.1719 47.6979C57.1153 47.5777 57.0128 47.4682 56.8644 47.3692C56.723 47.2632 56.5852 47.1748 56.4509 47.1041C56.3237 47.0264 56.1257 46.9451 55.8571 46.8603C55.5956 46.7684 55.3765 46.6977 55.1998 46.6482C55.0231 46.5917 54.7615 46.5139 54.4152 46.415C53.7861 46.2383 53.2948 46.0969 52.9414 45.9909C52.5951 45.8778 52.1003 45.6905 51.457 45.4289C50.8209 45.1674 50.3119 44.9059 49.9302 44.6443C49.5485 44.3757 49.1103 44.0152 48.6155 43.5628C48.1278 43.1034 47.7461 42.6086 47.4704 42.0785C47.2018 41.5483 46.9686 40.9051 46.7706 40.1488C46.5798 39.3854 46.4844 38.5513 46.4844 37.6466C46.4844 36.6782 46.5727 35.8194 46.7494 35.0701C46.9262 34.3208 47.1559 33.6882 47.4386 33.1722C47.7284 32.6562 48.1243 32.218 48.6261 31.8575C49.128 31.497 49.6263 31.2143 50.1211 31.0093C50.623 30.8043 51.252 30.6488 52.0084 30.5428C52.7718 30.4297 53.4786 30.359 54.1289 30.3307C54.7863 30.2954 55.5885 30.2777 56.5357 30.2777C58.8612 30.2777 61.5897 30.5887 64.721 31.2107L63.7667 38.2615C62.6853 37.7738 61.4518 37.3638 60.0664 37.0316C58.681 36.6994 57.3663 36.5333 56.1222 36.5333C55.4648 36.5333 54.9453 36.6393 54.5636 36.8514C54.1819 37.0563 53.9911 37.3497 53.9911 37.7314C53.9911 37.8515 54.0193 37.9646 54.0759 38.0707C54.1395 38.1767 54.2491 38.2792 54.4046 38.3781C54.5601 38.4771 54.7085 38.5655 54.8499 38.6432C54.9913 38.7139 55.2033 38.7987 55.486 38.8977C55.7688 38.9966 56.002 39.0744 56.1858 39.1309C56.3767 39.1875 56.6594 39.2723 57.034 39.3854C58.7729 39.9085 60.0841 40.382 60.9676 40.8062C63.2861 41.9159 64.7634 43.4356 65.3996 45.3653C65.654 46.1428 65.7812 46.991 65.7812 47.9099C65.7812 48.8571 65.6858 49.7195 65.495 50.497C65.3112 51.2745 65.0532 51.9496 64.721 52.5221C64.3958 53.0876 63.9859 53.5894 63.4911 54.0277C62.9963 54.4589 62.4626 54.8123 61.8901 55.088C61.3175 55.3636 60.6708 55.5898 59.9498 55.7665C59.2288 55.9362 58.5007 56.0563 57.7656 56.127C57.0376 56.1977 56.2459 56.233 55.3906 56.233C52.4289 56.233 49.4461 56.0775 46.442 55.7665ZM68.0167 55.6711C68.0167 55.558 68.0839 55.1162 68.2182 54.3458C68.5928 52.0203 69.0204 49.6134 69.5011 47.1253C69.9817 44.6302 70.6038 41.5377 71.3672 37.848C72.1306 34.1512 72.6289 31.7267 72.8621 30.5746C74.2758 30.511 76.2197 30.4791 78.6936 30.4791C80.9979 30.4791 83.0124 30.511 84.7371 30.5746C84.8502 30.5746 84.9563 30.617 85.0552 30.7018C85.1542 30.7796 85.2143 30.8785 85.2355 30.9987C85.5465 32.5749 86.0731 35.1514 86.8153 38.728C87.5645 42.3047 88.2007 45.4678 88.7237 48.2174C89.2539 50.96 89.7063 53.5612 90.0809 56.021C88.745 56.0846 87.515 56.1164 86.3912 56.1164C84.5887 56.1164 83.2033 56.0846 82.2349 56.021C82.1147 56.0139 82.0052 55.9715 81.9062 55.8938C81.8143 55.8089 81.7578 55.71 81.7366 55.5969C81.4185 53.9711 81.1605 52.5575 80.9626 51.3558H77.029C76.8028 52.8685 76.5307 54.4235 76.2126 56.021C74.8554 56.0846 73.6856 56.1164 72.7031 56.1164C71.5297 56.1164 70.0842 56.0846 68.3666 56.021C68.2606 56.021 68.1758 55.9892 68.1121 55.9256C68.0485 55.8549 68.0167 55.7701 68.0167 55.6711ZM77.7394 45.8424H80.125C79.9553 44.6832 79.7256 43.0327 79.4358 40.891C79.146 38.7422 78.9375 37.2224 78.8102 36.3318C78.6689 37.484 78.4816 39.138 78.2483 41.2939C78.015 43.4427 77.8454 44.9589 77.7394 45.8424ZM93.3448 43.2978C93.3448 39.3394 93.4014 35.0984 93.5145 30.5746C94.8575 30.511 96.0944 30.4791 97.2254 30.4791C98.3917 30.4791 99.8407 30.511 101.572 30.5746C101.686 30.5746 101.785 30.617 101.869 30.7018C101.954 30.7866 101.997 30.8856 101.997 30.9987C102.11 36.3142 102.166 40.4139 102.166 43.2978C102.166 45.178 102.156 47.0123 102.134 48.8006H102.315C104.895 48.8006 107.051 48.8324 108.782 48.896C108.895 48.896 108.994 48.9384 109.079 49.0232C109.164 49.108 109.206 49.207 109.206 49.3201C109.235 51.0448 109.249 52.2676 109.249 52.9886C109.249 54.0984 109.235 55.1374 109.206 56.1058C107.863 56.1694 105.778 56.2012 102.951 56.2012C102.251 56.2012 100.76 56.1765 98.4765 56.127C96.2005 56.0846 94.6878 56.0493 93.9386 56.021C93.8255 56.021 93.7265 55.9786 93.6417 55.8938C93.5569 55.8089 93.5145 55.71 93.5145 55.5969C93.4014 50.2814 93.3448 46.1817 93.3448 43.2978ZM110.933 55.6711C110.933 55.558 111 55.1162 111.134 54.3458C111.509 52.0203 111.937 49.6134 112.417 47.1253C112.898 44.6302 113.52 41.5377 114.283 37.848C115.047 34.1512 115.545 31.7267 115.778 30.5746C117.192 30.511 119.136 30.4791 121.61 30.4791C123.914 30.4791 125.929 30.511 127.653 30.5746C127.766 30.5746 127.873 30.617 127.971 30.7018C128.07 30.7796 128.131 30.8785 128.152 30.9987C128.463 32.5749 128.989 35.1514 129.732 38.728C130.481 42.3047 131.117 45.4678 131.64 48.2174C132.17 50.96 132.623 53.5612 132.997 56.021C131.661 56.0846 130.431 56.1164 129.307 56.1164C127.505 56.1164 126.12 56.0846 125.151 56.021C125.031 56.0139 124.921 55.9715 124.822 55.8938C124.731 55.8089 124.674 55.71 124.653 55.5969C124.335 53.9711 124.077 52.5575 123.879 51.3558H119.945C119.719 52.8685 119.447 54.4235 119.129 56.021C117.772 56.0846 116.602 56.1164 115.619 56.1164C114.446 56.1164 113 56.0846 111.283 56.021C111.177 56.021 111.092 55.9892 111.028 55.9256C110.965 55.8549 110.933 55.7701 110.933 55.6711ZM120.656 45.8424H123.041C122.872 44.6832 122.642 43.0327 122.352 40.891C122.062 38.7422 121.854 37.2224 121.726 36.3318C121.585 37.484 121.398 39.138 121.165 41.2939C120.931 43.4427 120.762 44.9589 120.656 45.8424ZM136.261 43.2978C136.261 39.3394 136.318 35.0984 136.431 30.5746C137.774 30.511 139.011 30.4791 140.142 30.4791C141.308 30.4791 142.757 30.511 144.489 30.5746C144.602 30.5746 144.701 30.617 144.786 30.7018C144.87 30.7866 144.913 30.8856 144.913 30.9987C144.969 33.5928 144.998 36.5615 144.998 39.9049H147.797C147.797 36.0526 147.825 32.9425 147.882 30.5746C149.225 30.511 150.462 30.4791 151.593 30.4791C152.759 30.4791 154.208 30.511 155.94 30.5746C156.053 30.5746 156.152 30.617 156.237 30.7018C156.321 30.7866 156.364 30.8856 156.364 30.9987C156.477 36.3142 156.533 40.4139 156.533 43.2978C156.533 47.2561 156.477 51.4972 156.364 56.021C155.021 56.0846 153.784 56.1164 152.653 56.1164C151.487 56.1164 150.037 56.0846 148.306 56.021C148.193 56.021 148.094 55.9786 148.009 55.8938C147.924 55.8089 147.882 55.71 147.882 55.5969C147.839 53.7379 147.811 50.9105 147.797 47.1147H144.998C144.998 50.7903 144.969 53.7591 144.913 56.021C143.57 56.0846 142.333 56.1164 141.202 56.1164C140.036 56.1164 138.587 56.0846 136.855 56.021C136.742 56.021 136.643 55.9786 136.558 55.8938C136.473 55.8089 136.431 55.71 136.431 55.5969C136.318 50.2814 136.261 46.1817 136.261 43.2978Z" fill="white"/>
</g>
<defs>
<filter id="filter0_d_138_29" x="0.428467" y="0.428589" width="205.81" height="93.7143" filterUnits="userSpaceOnUse" color-interpolation-filters="sRGB">
<feFlood flood-opacity="0" result="BackgroundImageFix"/>
<feColorMatrix in="SourceAlpha" type="matrix" values="0 0 0 0 0 0 0 0 0 0 0 0 0 0 0 0 0 0 127 0" result="hardAlpha"/>
<feOffset dy="4.57143"/>
<feComposite in2="hardAlpha" operator="out"/>
<feColorMatrix type="matrix" values="0 0 0 0 0 0 0 0 0 0 0 0 0 0 0 0 0 0 0.15 0"/>
<feBlend mode="normal" in2="BackgroundImageFix" result="effect1_dropShadow_138_29"/>
<feBlend mode="normal" in="SourceGraphic" in2="effect1_dropShadow_138_29" result="shape"/>
</filter>
<filter id="filter1_d_138_29" x="46.4419" y="30.2777" width="110.092" height="28.241" filterUnits="userSpaceOnUse" color-interpolation-filters="sRGB">
<feFlood flood-opacity="0" result="BackgroundImageFix"/>
<feColorMatrix in="SourceAlpha" type="matrix" values="0 0 0 0 0 0 0 0 0 0 0 0 0 0 0 0 0 0 127 0" result="hardAlpha"/>
<feOffset dy="2.28571"/>
<feComposite in2="hardAlpha" operator="out"/>
<feColorMatrix type="matrix" values="0 0 0 0 0 0 0 0 0 0 0 0 0 0 0 0 0 0 0.15 0"/>
<feBlend mode="normal" in2="BackgroundImageFix" result="effect1_dropShadow_138_29"/>
<feBlend mode="normal" in="SourceGraphic" in2="effect1_dropShadow_138_29" result="shape"/>
</filter>
</defs>
</svg>
