<svg width="207" height="94" viewBox="0 0 207 94" fill="none" xmlns="http://www.w3.org/2000/svg">
<g filter="url(#filter0_d_77_546)">
<rect x="5.33331" y="4.64819" width="196.667" height="80" rx="18.2857" fill="#FFB213"/>
<rect x="3.0476" y="2.36248" width="201.238" height="84.5714" rx="20.5714" stroke="white" stroke-width="4.57143"/>
</g>
<rect x="5.33331" y="4.64819" width="196.667" height="71.6667" rx="18.2857" fill="#FFDB0A"/>
<path opacity="0.5" fill-rule="evenodd" clip-rule="evenodd" d="M75.7143 4.64819H23.619C13.5201 4.64819 5.33331 12.835 5.33331 22.9339V58.0292C5.33331 68.1281 13.5201 76.3149 23.619 76.3149H137.936L75.7143 4.64819Z" fill="#FFEE88"/>
<g filter="url(#filter1_d_77_546)">
<path d="M51.3027 33.7768C51.3027 32.6388 51.3169 31.5644 51.3451 30.5536C52.6952 30.49 55.9679 30.4581 61.1632 30.4581C65.27 30.4581 68.1893 30.49 69.921 30.5536C70.0341 30.5536 70.1331 30.596 70.2179 30.6808C70.3027 30.7656 70.3451 30.8646 70.3451 30.9777C70.3734 32.5751 70.3875 33.7768 70.3875 34.5826C70.3875 35.7347 70.3734 36.795 70.3451 37.7634C69.8857 37.7846 68.1751 37.8093 65.2134 37.8376C65.2417 39.3644 65.2559 41.1775 65.2559 43.2768C65.2559 47.2351 65.1993 51.4762 65.0862 56C63.7432 56.0636 62.5062 56.0954 61.3753 56.0954C60.209 56.0954 58.7599 56.0636 57.0282 56C56.9151 56 56.8161 55.9576 56.7313 55.8728C56.6465 55.7879 56.6041 55.689 56.6041 55.5759C56.491 50.2604 56.4344 46.1607 56.4344 43.2768C56.4344 41.9691 56.4486 40.1419 56.4768 37.7952C54.8511 37.7599 53.2819 37.721 51.7692 37.6786C51.6561 37.6786 51.5572 37.6362 51.4724 37.5513C51.3875 37.4665 51.3451 37.3676 51.3451 37.2545C51.3169 35.6287 51.3027 34.4695 51.3027 33.7768ZM73.8635 43.2768C73.8635 39.3185 73.9201 35.0774 74.0332 30.5536C75.3762 30.49 76.6132 30.4581 77.7441 30.4581C78.9104 30.4581 80.3594 30.49 82.0912 30.5536C82.2043 30.5536 82.3033 30.596 82.3881 30.6808C82.4729 30.7656 82.5153 30.8646 82.5153 30.9777C82.6284 36.2932 82.685 40.3929 82.685 43.2768C82.685 47.2351 82.6284 51.4762 82.5153 56C81.1723 56.0636 79.9353 56.0954 78.8044 56.0954C77.6381 56.0954 76.189 56.0636 74.4573 56C74.3442 56 74.2452 55.9576 74.1604 55.8728C74.0756 55.7879 74.0332 55.689 74.0332 55.5759C73.9201 50.2604 73.8635 46.1607 73.8635 43.2768ZM95.9578 43.2768C95.9578 44.9591 95.9826 46.8251 96.032 48.875H96.753C96.9651 48.875 97.1453 48.8538 97.2938 48.8114C97.4493 48.7619 97.6083 48.6735 97.7709 48.5463C97.9334 48.4191 98.0677 48.2282 98.1738 47.9738C98.2798 47.7122 98.3752 47.38 98.46 46.9771C98.5449 46.5672 98.6085 46.0547 98.6509 45.4397C98.6933 44.8177 98.7145 44.0932 98.7145 43.2662C98.7145 42.2837 98.6792 41.4461 98.6085 40.7533C98.5449 40.0606 98.46 39.5164 98.354 39.1205C98.2551 38.7176 98.1137 38.4066 97.9299 38.1875C97.7532 37.9613 97.5765 37.8164 97.3998 37.7528C97.2301 37.6892 97.0145 37.6574 96.753 37.6574H96.0426C95.9861 40.0041 95.9578 41.8772 95.9578 43.2768ZM87.5605 43.2768C87.5605 41.8631 87.5746 39.8132 87.6029 37.1272C87.6312 34.4412 87.6453 32.3914 87.6453 30.9777C90.7766 30.497 93.5333 30.2567 95.9154 30.2567C97.3998 30.2567 98.7251 30.3875 99.8914 30.649C101.058 30.9105 102.129 31.3523 103.104 31.9743C104.087 32.5893 104.899 33.3916 105.543 34.3811C106.186 35.3637 106.684 36.6006 107.038 38.0921C107.398 39.5765 107.578 41.3012 107.578 43.2662C107.578 44.4325 107.522 45.5104 107.409 46.5C107.303 47.4825 107.147 48.3696 106.942 49.1613C106.737 49.9529 106.476 50.6669 106.158 51.303C105.84 51.9392 105.486 52.4976 105.097 52.9782C104.709 53.4518 104.26 53.8689 103.751 54.2294C103.249 54.5898 102.722 54.8867 102.171 55.12C101.62 55.3532 101.005 55.5441 100.326 55.6925C99.6546 55.8339 98.9725 55.9364 98.2798 56C97.5871 56.0565 96.8272 56.0848 96.0002 56.0848C95.7175 56.0848 95.41 56.0778 95.0778 56.0636C94.7526 56.0565 94.4664 56.0495 94.219 56.0424C93.9716 56.0353 93.6358 56.0177 93.2117 55.9894C92.7876 55.9611 92.4801 55.9435 92.2893 55.9364C92.0984 55.9222 91.7415 55.894 91.2184 55.8516C90.7024 55.8021 90.3773 55.7738 90.243 55.7667C90.1157 55.7526 89.7446 55.7208 89.1297 55.6713C88.5147 55.6148 88.1613 55.583 88.0694 55.5759C87.9563 55.5759 87.8574 55.5335 87.7725 55.4487C87.6877 55.3638 87.6453 55.2649 87.6453 55.1518C87.6453 53.8441 87.6312 51.8968 87.6029 49.3097C87.5746 46.7227 87.5605 44.7117 87.5605 43.2768ZM109.983 55.6501C109.983 55.537 110.051 55.0952 110.185 54.3248C110.56 51.9993 110.987 49.5924 111.468 47.1044C111.948 44.6092 112.571 41.5167 113.334 37.827C114.097 34.1302 114.596 31.7057 114.829 30.5536C116.243 30.49 118.186 30.4581 120.66 30.4581C122.965 30.4581 124.979 30.49 126.704 30.5536C126.817 30.5536 126.923 30.596 127.022 30.6808C127.121 30.7586 127.181 30.8575 127.202 30.9777C127.513 32.5539 128.04 35.1304 128.782 38.707C129.531 42.2837 130.167 45.4468 130.69 48.1964C131.221 50.939 131.673 53.5402 132.048 56C130.712 56.0636 129.482 56.0954 128.358 56.0954C126.555 56.0954 125.17 56.0636 124.202 56C124.081 55.9929 123.972 55.9505 123.873 55.8728C123.781 55.7879 123.725 55.689 123.703 55.5759C123.385 53.9501 123.127 52.5365 122.929 51.3348H118.996C118.77 52.8475 118.497 54.4025 118.179 56C116.822 56.0636 115.652 56.0954 114.67 56.0954C113.496 56.0954 112.051 56.0636 110.333 56C110.227 56 110.143 55.9682 110.079 55.9046C110.015 55.8339 109.983 55.7491 109.983 55.6501ZM119.706 45.8214H122.092C121.922 44.6622 121.692 43.0117 121.403 40.87C121.113 38.7212 120.904 37.2015 120.777 36.3108C120.636 37.463 120.448 39.117 120.215 41.2729C119.982 43.4217 119.812 44.9379 119.706 45.8214ZM135.312 43.2768C135.312 39.3185 135.368 35.0774 135.481 30.5536C136.824 30.49 138.061 30.4581 139.192 30.4581C140.358 30.4581 141.807 30.49 143.539 30.5536C143.652 30.5536 143.751 30.596 143.836 30.6808C143.921 30.7656 143.963 30.8646 143.963 30.9777C143.97 31.3099 143.974 31.8082 143.974 32.4727C143.974 33.1795 143.921 35.5121 143.815 39.4704C143.914 39.4704 144.066 39.4704 144.271 39.4704C144.483 39.4634 144.642 39.4598 144.748 39.4598C145.009 38.6682 145.48 37.2933 146.158 35.3354C146.837 33.3704 147.342 31.8824 147.674 30.8717C147.717 30.7515 147.802 30.6525 147.929 30.5748C148.056 30.497 148.187 30.4546 148.321 30.4475C149.388 30.3769 150.523 30.3415 151.725 30.3415C153.244 30.3415 154.654 30.4193 155.955 30.5748C155.086 34.2857 153.891 37.6362 152.371 40.6261C151.537 42.0469 150.435 42.7961 149.063 42.8739V42.9375C149.784 42.9799 150.438 43.199 151.025 43.5949C151.611 43.9836 152.103 44.5138 152.499 45.1853C153.743 47.638 154.923 51.2429 156.04 56C154.739 56.1555 153.258 56.2333 151.597 56.2333C150.396 56.2333 149.261 56.1979 148.194 56.1272C148.06 56.1202 147.929 56.0778 147.802 56C147.674 55.9222 147.589 55.8233 147.547 55.7031C146.854 53.5897 145.872 50.2286 144.6 45.62H143.783C143.79 45.8532 143.826 47.0584 143.889 49.2355C143.953 51.4055 143.985 53.056 143.985 54.1869C143.985 54.5898 143.977 55.1942 143.963 56C142.62 56.0636 141.383 56.0954 140.252 56.0954C139.086 56.0954 137.637 56.0636 135.905 56C135.792 56 135.693 55.9576 135.608 55.8728C135.524 55.7879 135.481 55.689 135.481 55.5759C135.368 50.2604 135.312 46.1607 135.312 43.2768Z" fill="white"/>
</g>
<defs>
<filter id="filter0_d_77_546" x="0.761902" y="0.0767822" width="205.81" height="93.7143" filterUnits="userSpaceOnUse" color-interpolation-filters="sRGB">
<feFlood flood-opacity="0" result="BackgroundImageFix"/>
<feColorMatrix in="SourceAlpha" type="matrix" values="0 0 0 0 0 0 0 0 0 0 0 0 0 0 0 0 0 0 127 0" result="hardAlpha"/>
<feOffset dy="4.57143"/>
<feComposite in2="hardAlpha" operator="out"/>
<feColorMatrix type="matrix" values="0 0 0 0 0 0 0 0 0 0 0 0 0 0 0 0 0 0 0.15 0"/>
<feBlend mode="normal" in2="BackgroundImageFix" result="effect1_dropShadow_77_546"/>
<feBlend mode="normal" in="SourceGraphic" in2="effect1_dropShadow_77_546" result="shape"/>
</filter>
<filter id="filter1_d_77_546" x="51.3027" y="30.2567" width="104.737" height="28.2623" filterUnits="userSpaceOnUse" color-interpolation-filters="sRGB">
<feFlood flood-opacity="0" result="BackgroundImageFix"/>
<feColorMatrix in="SourceAlpha" type="matrix" values="0 0 0 0 0 0 0 0 0 0 0 0 0 0 0 0 0 0 127 0" result="hardAlpha"/>
<feOffset dy="2.28571"/>
<feComposite in2="hardAlpha" operator="out"/>
<feColorMatrix type="matrix" values="0 0 0 0 0 0 0 0 0 0 0 0 0 0 0 0 0 0 0.15 0"/>
<feBlend mode="normal" in2="BackgroundImageFix" result="effect1_dropShadow_77_546"/>
<feBlend mode="normal" in="SourceGraphic" in2="effect1_dropShadow_77_546" result="shape"/>
</filter>
</defs>
</svg>
