<svg width="206" height="94" viewBox="0 0 206 94" fill="none" xmlns="http://www.w3.org/2000/svg">
<g filter="url(#filter0_d_77_538)">
<rect x="4.66666" y="4.64819" width="196.667" height="80" rx="18.2857" fill="#FFB213"/>
<rect x="2.38094" y="2.36248" width="201.238" height="84.5714" rx="20.5714" stroke="white" stroke-width="4.57143"/>
</g>
<rect x="4.66666" y="4.64819" width="196.667" height="71.6667" rx="18.2857" fill="#FFDB0A"/>
<path opacity="0.5" fill-rule="evenodd" clip-rule="evenodd" d="M75.0476 4.64819H22.9524C12.8534 4.64819 4.66666 12.835 4.66666 22.9339V58.0292C4.66666 68.1281 12.8535 76.3149 22.9524 76.3149H137.269L75.0476 4.64819Z" fill="#FFEE88"/>
<g filter="url(#filter1_d_77_538)">
<path d="M21.9508 43.2768C21.9508 39.3185 22.0073 35.0774 22.1204 30.5536C23.4634 30.49 24.6297 30.4581 25.6193 30.4581C26.8068 30.4581 28.0297 30.49 29.2879 30.5536C29.4928 30.5606 29.6483 30.702 29.7544 30.9777L35.0769 41.8348L40.3995 30.9777C40.5974 30.7161 40.7706 30.5783 40.919 30.5642C41.8025 30.4935 42.7957 30.4581 43.8983 30.4581C45.0858 30.4581 46.3935 30.49 47.8213 30.5536C47.9415 30.5606 48.0405 30.6066 48.1182 30.6914C48.203 30.7692 48.2454 30.8646 48.2454 30.9777C48.3585 36.2932 48.4151 40.3929 48.4151 43.2768C48.4151 47.2351 48.3585 51.4762 48.2454 56C47.0297 56.0636 45.9341 56.0954 44.9586 56.0954C44.0751 56.0954 42.7674 56.0636 41.0356 56C40.9225 56 40.8236 55.9576 40.7387 55.8728C40.6539 55.7879 40.6115 55.689 40.6115 55.5759C40.5903 54.7842 40.5585 53.6003 40.5161 52.024C40.4737 50.4407 40.4383 49.0058 40.4101 47.7193C40.3818 46.4258 40.3641 45.1888 40.3571 44.0084L35.5222 53.8795L35.0557 53.9643L34.6316 53.8795L30.03 44.4855L30.1785 56C28.8355 56.0636 27.6692 56.0954 26.6796 56.0954C25.6547 56.0954 24.2763 56.0636 22.5446 56C22.4315 56 22.3325 55.9576 22.2477 55.8728C22.1629 55.7879 22.1204 55.689 22.1204 55.5759C22.0073 50.2604 21.9508 46.1607 21.9508 43.2768ZM52.4 43.4358C52.4 39.3715 52.4565 35.0774 52.5696 30.5536C53.9126 30.49 55.1496 30.4581 56.2806 30.4581C57.4469 30.4581 58.8959 30.49 60.6277 30.5536C60.7408 30.5536 60.8397 30.596 60.9246 30.6808C61.0094 30.7656 61.0518 30.8646 61.0518 30.9777C61.1649 36.2932 61.2214 40.8735 61.2214 44.7188C61.2214 45.6447 61.2532 46.3975 61.3168 46.9771C61.3805 47.5567 61.49 47.9985 61.6455 48.3025C61.801 48.5993 61.9742 48.7972 62.1651 48.8962C62.3559 48.9952 62.6068 49.0446 62.9179 49.0446C63.3349 49.0446 63.6494 48.9492 63.8615 48.7584C64.0735 48.5675 64.2361 48.1576 64.3492 47.5285C64.4694 46.8923 64.5295 45.9522 64.5295 44.7081C64.5295 39.7956 64.586 35.0774 64.6991 30.5536C66.0492 30.49 67.2862 30.4581 68.41 30.4581C69.5763 30.4581 71.0254 30.49 72.7571 30.5536C72.8702 30.5536 72.9692 30.596 73.054 30.6808C73.1388 30.7656 73.1812 30.8646 73.1812 30.9777C73.2943 36.2932 73.3509 40.4459 73.3509 43.4358C73.3509 45.2524 73.2131 46.8676 72.9374 48.2813C72.6617 49.6949 72.2659 50.9001 71.7499 51.8968C71.2339 52.8863 70.5836 53.7098 69.799 54.3672C69.0215 55.0246 68.1485 55.5158 67.1801 55.841C66.2118 56.1661 65.1161 56.3605 63.8933 56.4241C62.8966 56.4241 61.999 56.3817 61.2002 56.2969C60.4015 56.2191 59.6275 56.0848 58.8782 55.894C58.129 55.7031 57.4681 55.4487 56.8955 55.1306C56.323 54.8054 55.7858 54.4061 55.2839 53.9325C54.7891 53.4518 54.3686 52.8863 54.0222 52.236C53.6759 51.5787 53.3754 50.8224 53.121 49.9671C52.8736 49.1118 52.6898 48.1434 52.5696 47.0619C52.4565 45.9734 52.4 44.7647 52.4 43.4358ZM77.3358 43.2768C77.3358 39.3185 77.3923 35.0774 77.5054 30.5536C78.8484 30.49 80.0147 30.4581 81.0043 30.4581C81.8455 30.4581 83.0683 30.49 84.6729 30.5536C84.8778 30.5606 85.0333 30.702 85.1394 30.9777L89.5289 41.8348L89.3804 30.5536C90.7305 30.49 91.9675 30.4581 93.0914 30.4581C94.1941 30.4581 95.5017 30.49 97.0144 30.5536C97.1345 30.5606 97.2335 30.6066 97.3112 30.6914C97.3961 30.7692 97.4385 30.8646 97.4385 30.9777C97.5516 36.2932 97.6081 40.3929 97.6081 43.2768C97.6081 47.2351 97.5516 51.4762 97.4385 56C96.2651 56.0636 95.1695 56.0954 94.1516 56.0954C92.9429 56.0954 91.6494 56.0636 90.2711 56C90.059 55.9929 89.9035 55.8516 89.8045 55.5759L85.415 44.7188L85.5635 56C84.2205 56.0636 83.0542 56.0954 82.0646 56.0954C80.9478 56.0954 79.5694 56.0636 77.9295 56C77.8094 55.9929 77.7069 55.9505 77.6221 55.8728C77.5443 55.7879 77.5054 55.689 77.5054 55.5759C77.3923 50.2604 77.3358 46.1607 77.3358 43.2768ZM101.551 43.2662C101.551 41.3012 101.727 39.5765 102.081 38.0921C102.441 36.6006 102.943 35.3637 103.586 34.3811C104.23 33.3916 105.039 32.5893 106.014 31.9743C106.997 31.3523 108.071 30.9105 109.238 30.649C110.404 30.3875 111.729 30.2567 113.214 30.2567C115.285 30.2567 117.815 30.497 120.805 30.9777L119.914 37.6786H112.365C112.111 37.6786 111.895 37.7104 111.719 37.774C111.542 37.8376 111.365 37.979 111.188 38.1981C111.012 38.4172 110.87 38.7247 110.764 39.1205C110.665 39.5164 110.581 40.0606 110.51 40.7533C110.446 41.4461 110.414 42.2837 110.414 43.2662C110.414 44.0861 110.439 44.8106 110.489 45.4397C110.538 46.0618 110.612 46.5742 110.711 46.9771C110.817 47.373 110.93 47.7016 111.051 47.9632C111.171 48.2247 111.319 48.4191 111.496 48.5463C111.673 48.6735 111.842 48.7619 112.005 48.8114C112.167 48.8538 112.358 48.875 112.577 48.875H113.426C113.426 47.4896 113.369 45.3408 113.256 42.4286C114.5 42.372 115.617 42.3438 116.606 42.3438C117.653 42.3438 118.882 42.372 120.296 42.4286C120.409 42.4356 120.505 42.4816 120.582 42.5664C120.667 42.6442 120.713 42.7396 120.72 42.8527C120.833 45.468 120.89 47.4472 120.89 48.7902C120.89 51.1157 120.833 53.2786 120.72 55.279C119.519 55.4911 118.628 55.643 118.048 55.7349C117.469 55.8268 116.748 55.9081 115.885 55.9788C115.023 56.0495 114.104 56.0848 113.129 56.0848C112.302 56.0848 111.542 56.0565 110.849 56C110.156 55.9364 109.471 55.8339 108.792 55.6925C108.121 55.5441 107.509 55.3532 106.958 55.12C106.407 54.8867 105.877 54.5898 105.368 54.2294C104.866 53.8689 104.42 53.4518 104.032 52.9782C103.643 52.4976 103.289 51.9392 102.971 51.303C102.653 50.6669 102.392 49.9529 102.187 49.1613C101.982 48.3696 101.823 47.4825 101.71 46.5C101.604 45.5104 101.551 44.4325 101.551 43.2662ZM125.426 43.2768C125.426 39.3185 125.483 35.0774 125.596 30.5536C126.939 30.49 128.176 30.4581 129.307 30.4581C130.473 30.4581 131.922 30.49 133.654 30.5536C133.767 30.5536 133.866 30.596 133.951 30.6808C134.036 30.7656 134.078 30.8646 134.078 30.9777C134.085 31.3099 134.089 31.8082 134.089 32.4727C134.089 33.1795 134.036 35.5121 133.93 39.4704C134.028 39.4704 134.18 39.4704 134.385 39.4704C134.597 39.4634 134.757 39.4598 134.863 39.4598C135.124 38.6682 135.594 37.2933 136.273 35.3354C136.951 33.3704 137.457 31.8824 137.789 30.8717C137.831 30.7515 137.916 30.6525 138.043 30.5748C138.171 30.497 138.301 30.4546 138.436 30.4475C139.503 30.3769 140.637 30.3415 141.839 30.3415C143.359 30.3415 144.769 30.4193 146.07 30.5748C145.2 34.2857 144.006 37.6362 142.486 40.6261C141.652 42.0469 140.549 42.7961 139.178 42.8739V42.9375C139.899 42.9799 140.553 43.199 141.139 43.5949C141.726 43.9836 142.217 44.5138 142.613 45.1853C143.857 47.638 145.038 51.2429 146.154 56C144.854 56.1555 143.373 56.2333 141.712 56.2333C140.51 56.2333 139.376 56.1979 138.308 56.1272C138.174 56.1202 138.043 56.0778 137.916 56C137.789 55.9222 137.704 55.8233 137.662 55.7031C136.969 53.5897 135.986 50.2286 134.714 45.62H133.898C133.905 45.8532 133.94 47.0584 134.004 49.2355C134.067 51.4055 134.099 53.056 134.099 54.1869C134.099 54.5898 134.092 55.1942 134.078 56C132.735 56.0636 131.498 56.0954 130.367 56.0954C129.201 56.0954 127.752 56.0636 126.02 56C125.907 56 125.808 55.9576 125.723 55.8728C125.638 55.7879 125.596 55.689 125.596 55.5759C125.483 50.2604 125.426 46.1607 125.426 43.2768ZM149.768 43.2768C149.768 39.3185 149.825 35.0774 149.938 30.5536C151.281 30.49 152.518 30.4581 153.649 30.4581C154.815 30.4581 156.264 30.49 157.996 30.5536C158.109 30.5536 158.208 30.596 158.293 30.6808C158.378 30.7656 158.42 30.8646 158.42 30.9777C158.533 36.2932 158.59 40.3929 158.59 43.2768C158.59 47.2351 158.533 51.4762 158.42 56C157.077 56.0636 155.84 56.0954 154.709 56.0954C153.543 56.0954 152.094 56.0636 150.362 56C150.249 56 150.15 55.9576 150.065 55.8728C149.98 55.7879 149.938 55.689 149.938 55.5759C149.825 50.2604 149.768 46.1607 149.768 43.2768ZM163.38 43.2768C163.38 39.3185 163.437 35.0774 163.55 30.5536C164.893 30.49 166.059 30.4581 167.049 30.4581C167.89 30.4581 169.113 30.49 170.717 30.5536C170.922 30.5606 171.078 30.702 171.184 30.9777L175.573 41.8348L175.425 30.5536C176.775 30.49 178.012 30.4581 179.136 30.4581C180.239 30.4581 181.546 30.49 183.059 30.5536C183.179 30.5606 183.278 30.6066 183.356 30.6914C183.441 30.7692 183.483 30.8646 183.483 30.9777C183.596 36.2932 183.653 40.3929 183.653 43.2768C183.653 47.2351 183.596 51.4762 183.483 56C182.31 56.0636 181.214 56.0954 180.196 56.0954C178.987 56.0954 177.694 56.0636 176.316 56C176.104 55.9929 175.948 55.8516 175.849 55.5759L171.46 44.7188L171.608 56C170.265 56.0636 169.099 56.0954 168.109 56.0954C166.992 56.0954 165.614 56.0636 163.974 56C163.854 55.9929 163.751 55.9505 163.667 55.8728C163.589 55.7879 163.55 55.689 163.55 55.5759C163.437 50.2604 163.38 46.1607 163.38 43.2768Z" fill="white"/>
</g>
<defs>
<filter id="filter0_d_77_538" x="0.0952148" y="0.0767822" width="205.81" height="93.7143" filterUnits="userSpaceOnUse" color-interpolation-filters="sRGB">
<feFlood flood-opacity="0" result="BackgroundImageFix"/>
<feColorMatrix in="SourceAlpha" type="matrix" values="0 0 0 0 0 0 0 0 0 0 0 0 0 0 0 0 0 0 127 0" result="hardAlpha"/>
<feOffset dy="4.57143"/>
<feComposite in2="hardAlpha" operator="out"/>
<feColorMatrix type="matrix" values="0 0 0 0 0 0 0 0 0 0 0 0 0 0 0 0 0 0 0.15 0"/>
<feBlend mode="normal" in2="BackgroundImageFix" result="effect1_dropShadow_77_538"/>
<feBlend mode="normal" in="SourceGraphic" in2="effect1_dropShadow_77_538" result="shape"/>
</filter>
<filter id="filter1_d_77_538" x="21.9508" y="30.2567" width="161.702" height="28.4531" filterUnits="userSpaceOnUse" color-interpolation-filters="sRGB">
<feFlood flood-opacity="0" result="BackgroundImageFix"/>
<feColorMatrix in="SourceAlpha" type="matrix" values="0 0 0 0 0 0 0 0 0 0 0 0 0 0 0 0 0 0 127 0" result="hardAlpha"/>
<feOffset dy="2.28571"/>
<feComposite in2="hardAlpha" operator="out"/>
<feColorMatrix type="matrix" values="0 0 0 0 0 0 0 0 0 0 0 0 0 0 0 0 0 0 0.15 0"/>
<feBlend mode="normal" in2="BackgroundImageFix" result="effect1_dropShadow_77_538"/>
<feBlend mode="normal" in="SourceGraphic" in2="effect1_dropShadow_77_538" result="shape"/>
</filter>
</defs>
</svg>
