<svg width="207" height="94" viewBox="0 0 207 94" fill="none" xmlns="http://www.w3.org/2000/svg">
<g filter="url(#filter0_d_77_511)">
<rect x="5" y="4.64819" width="196.667" height="80" rx="18.2857" fill="#FFB213"/>
<rect x="2.71429" y="2.36248" width="201.238" height="84.5714" rx="20.5714" stroke="white" stroke-width="4.57143"/>
</g>
<rect x="5" y="4.64819" width="196.667" height="71.6667" rx="18.2857" fill="#FFDB0A"/>
<path opacity="0.5" fill-rule="evenodd" clip-rule="evenodd" d="M75.381 4.64819H23.2857C13.1868 4.64819 5 12.835 5 22.9339V58.0292C5 68.1281 13.1868 76.3149 23.2857 76.3149H137.602L75.381 4.64819Z" fill="#FFEE88"/>
<g filter="url(#filter1_d_77_511)">
<path d="M74.2841 43.2768C74.2841 39.3185 74.3407 35.0774 74.4538 30.5536C75.7968 30.49 77.0338 30.4581 78.1647 30.4581C79.331 30.4581 80.7801 30.49 82.5118 30.5536C82.6249 30.5536 82.7239 30.596 82.8087 30.6808C82.8935 30.7656 82.9359 30.8646 82.9359 30.9777C83.049 36.2932 83.1056 40.3929 83.1056 43.2768C83.1056 47.2351 83.049 51.4762 82.9359 56C81.5929 56.0636 80.3559 56.0954 79.225 56.0954C78.0587 56.0954 76.6097 56.0636 74.8779 56C74.7648 56 74.6658 55.9576 74.581 55.8728C74.4962 55.7879 74.4538 55.689 74.4538 55.5759C74.3407 50.2604 74.2841 46.1607 74.2841 43.2768ZM86.2847 30.702C87.5853 30.5465 89.0661 30.4688 90.7272 30.4688C91.9288 30.4688 93.0633 30.5041 94.1307 30.5748C94.265 30.5818 94.3957 30.6243 94.523 30.702C94.6502 30.7798 94.735 30.8787 94.7774 30.9989C95.4489 33.0558 96.3537 36.1376 97.4917 40.2444C98.5873 36.279 99.4956 33.1972 100.217 30.9989C100.259 30.8787 100.344 30.7798 100.471 30.702C100.598 30.6243 100.729 30.5818 100.863 30.5748C101.931 30.5041 103.065 30.4688 104.267 30.4688C105.928 30.4688 107.409 30.5465 108.709 30.702C107.593 35.4591 106.412 39.064 105.168 41.5167C104.284 43.0294 103.143 44.3618 101.743 45.514C101.8 50.1862 101.835 53.6815 101.849 56C100.506 56.0636 99.2412 56.0954 98.0537 56.0954C96.8308 56.0954 95.3535 56.0636 93.6217 56C93.5086 56 93.4097 55.9576 93.3249 55.8728C93.24 55.7879 93.1976 55.689 93.1976 55.5759C93.1976 53.4624 93.2188 50.1084 93.2612 45.514C91.8405 44.3406 90.6919 43.0082 89.8154 41.5167C88.5855 39.0923 87.4086 35.4874 86.2847 30.702ZM108.75 55.6501C108.75 55.537 108.817 55.0952 108.952 54.3248C109.326 51.9993 109.754 49.5924 110.234 47.1044C110.715 44.6092 111.337 41.5167 112.101 37.827C112.864 34.1302 113.362 31.7057 113.595 30.5536C115.009 30.49 116.953 30.4581 119.427 30.4581C121.731 30.4581 123.746 30.49 125.47 30.5536C125.584 30.5536 125.69 30.596 125.789 30.6808C125.888 30.7586 125.948 30.8575 125.969 30.9777C126.28 32.5539 126.806 35.1304 127.549 38.707C128.298 42.2837 128.934 45.4468 129.457 48.1964C129.987 50.939 130.44 53.5402 130.814 56C129.478 56.0636 128.248 56.0954 127.125 56.0954C125.322 56.0954 123.937 56.0636 122.968 56C122.848 55.9929 122.739 55.9505 122.64 55.8728C122.548 55.7879 122.491 55.689 122.47 55.5759C122.152 53.9501 121.894 52.5365 121.696 51.3348H117.762C117.536 52.8475 117.264 54.4025 116.946 56C115.589 56.0636 114.419 56.0954 113.436 56.0954C112.263 56.0954 110.818 56.0636 109.1 56C108.994 56 108.909 55.9682 108.845 55.9046C108.782 55.8339 108.75 55.7491 108.75 55.6501ZM118.473 45.8214H120.858C120.689 44.6622 120.459 43.0117 120.169 40.87C119.879 38.7212 119.671 37.2015 119.544 36.3108C119.402 37.463 119.215 39.117 118.982 41.2729C118.748 43.4217 118.579 44.9379 118.473 45.8214Z" fill="white"/>
</g>
<defs>
<filter id="filter0_d_77_511" x="0.428574" y="0.0767822" width="205.81" height="93.7143" filterUnits="userSpaceOnUse" color-interpolation-filters="sRGB">
<feFlood flood-opacity="0" result="BackgroundImageFix"/>
<feColorMatrix in="SourceAlpha" type="matrix" values="0 0 0 0 0 0 0 0 0 0 0 0 0 0 0 0 0 0 127 0" result="hardAlpha"/>
<feOffset dy="4.57143"/>
<feComposite in2="hardAlpha" operator="out"/>
<feColorMatrix type="matrix" values="0 0 0 0 0 0 0 0 0 0 0 0 0 0 0 0 0 0 0.15 0"/>
<feBlend mode="normal" in2="BackgroundImageFix" result="effect1_dropShadow_77_511"/>
<feBlend mode="normal" in="SourceGraphic" in2="effect1_dropShadow_77_511" result="shape"/>
</filter>
<filter id="filter1_d_77_511" x="74.2841" y="30.4581" width="56.5301" height="27.923" filterUnits="userSpaceOnUse" color-interpolation-filters="sRGB">
<feFlood flood-opacity="0" result="BackgroundImageFix"/>
<feColorMatrix in="SourceAlpha" type="matrix" values="0 0 0 0 0 0 0 0 0 0 0 0 0 0 0 0 0 0 127 0" result="hardAlpha"/>
<feOffset dy="2.28571"/>
<feComposite in2="hardAlpha" operator="out"/>
<feColorMatrix type="matrix" values="0 0 0 0 0 0 0 0 0 0 0 0 0 0 0 0 0 0 0.15 0"/>
<feBlend mode="normal" in2="BackgroundImageFix" result="effect1_dropShadow_77_511"/>
<feBlend mode="normal" in="SourceGraphic" in2="effect1_dropShadow_77_511" result="shape"/>
</filter>
</defs>
</svg>
