<svg width="206" height="95" viewBox="0 0 206 95" fill="none" xmlns="http://www.w3.org/2000/svg">
<g filter="url(#filter0_d_77_721)">
<rect x="4.66675" y="5" width="196.667" height="80" rx="18.2857" fill="#01BE29"/>
<rect x="2.38103" y="2.71429" width="201.238" height="84.5714" rx="20.5714" stroke="white" stroke-width="4.57143"/>
</g>
<rect x="4.66675" y="5" width="196.667" height="71.6667" rx="18.2857" fill="#06ED57"/>
<g filter="url(#filter1_d_77_721)">
<path d="M81.3393 30.723C82.6399 30.5675 84.1207 30.4897 85.7818 30.4897C86.9834 30.4897 88.1179 30.5251 89.1853 30.5958C89.3196 30.6028 89.4503 30.6453 89.5776 30.723C89.7048 30.8008 89.7896 30.8997 89.832 31.0199C90.5035 33.0768 91.4083 36.1586 92.5463 40.2654C93.6419 36.3 94.5502 33.2182 95.2712 31.0199C95.3136 30.8997 95.3984 30.8008 95.5257 30.723C95.6529 30.6453 95.7837 30.6028 95.918 30.5958C96.9853 30.5251 98.1198 30.4897 99.3214 30.4897C100.983 30.4897 102.463 30.5675 103.764 30.723C102.647 35.4801 101.467 39.085 100.223 41.5377C99.3391 43.0504 98.1975 44.3828 96.798 45.5349C96.8545 50.2072 96.8899 53.7025 96.904 56.021C95.561 56.0846 94.2958 56.1164 93.1083 56.1164C91.8854 56.1164 90.4081 56.0846 88.6763 56.021C88.5632 56.021 88.4643 55.9786 88.3795 55.8938C88.2946 55.8089 88.2522 55.71 88.2522 55.5969C88.2522 53.4834 88.2734 50.1294 88.3158 45.5349C86.8951 44.3616 85.7465 43.0292 84.87 41.5377C83.6401 39.1133 82.4632 35.5083 81.3393 30.723ZM103.805 55.6711C103.805 55.558 103.872 55.1162 104.006 54.3458C104.381 52.0203 104.808 49.6134 105.289 47.1253C105.77 44.6302 106.392 41.5377 107.155 37.848C107.919 34.1512 108.417 31.7267 108.65 30.5746C110.064 30.511 112.008 30.4791 114.482 30.4791C116.786 30.4791 118.8 30.511 120.525 30.5746C120.638 30.5746 120.744 30.617 120.843 30.7018C120.942 30.7796 121.002 30.8785 121.023 30.9987C121.334 32.5749 121.861 35.1514 122.603 38.728C123.352 42.3047 123.989 45.4678 124.512 48.2174C125.042 50.96 125.494 53.5612 125.869 56.021C124.533 56.0846 123.303 56.1164 122.179 56.1164C120.377 56.1164 118.991 56.0846 118.023 56.021C117.903 56.0139 117.793 55.9715 117.694 55.8938C117.602 55.8089 117.546 55.71 117.525 55.5969C117.206 53.9711 116.948 52.5575 116.751 51.3558H112.817C112.591 52.8685 112.319 54.4235 112.001 56.021C110.643 56.0846 109.474 56.1164 108.491 56.1164C107.318 56.1164 105.872 56.0846 104.155 56.021C104.049 56.021 103.964 55.9892 103.9 55.9256C103.836 55.8549 103.805 55.7701 103.805 55.6711ZM113.527 45.8424H115.913C115.743 44.6832 115.514 43.0327 115.224 40.891C114.934 38.7422 114.725 37.2224 114.598 36.3318C114.457 37.484 114.27 39.138 114.036 41.2939C113.803 43.4427 113.633 44.9589 113.527 45.8424Z" fill="white"/>
</g>
<defs>
<filter id="filter0_d_77_721" x="0.0952148" y="0.428467" width="205.81" height="93.7145" filterUnits="userSpaceOnUse" color-interpolation-filters="sRGB">
<feFlood flood-opacity="0" result="BackgroundImageFix"/>
<feColorMatrix in="SourceAlpha" type="matrix" values="0 0 0 0 0 0 0 0 0 0 0 0 0 0 0 0 0 0 127 0" result="hardAlpha"/>
<feOffset dy="4.57143"/>
<feComposite in2="hardAlpha" operator="out"/>
<feColorMatrix type="matrix" values="0 0 0 0 0 0 0 0 0 0 0 0 0 0 0 0 0 0 0.15 0"/>
<feBlend mode="normal" in2="BackgroundImageFix" result="effect1_dropShadow_77_721"/>
<feBlend mode="normal" in="SourceGraphic" in2="effect1_dropShadow_77_721" result="shape"/>
</filter>
<filter id="filter1_d_77_721" x="81.3394" y="30.4792" width="44.5295" height="27.9229" filterUnits="userSpaceOnUse" color-interpolation-filters="sRGB">
<feFlood flood-opacity="0" result="BackgroundImageFix"/>
<feColorMatrix in="SourceAlpha" type="matrix" values="0 0 0 0 0 0 0 0 0 0 0 0 0 0 0 0 0 0 127 0" result="hardAlpha"/>
<feOffset dy="2.28571"/>
<feComposite in2="hardAlpha" operator="out"/>
<feColorMatrix type="matrix" values="0 0 0 0 0 0 0 0 0 0 0 0 0 0 0 0 0 0 0.15 0"/>
<feBlend mode="normal" in2="BackgroundImageFix" result="effect1_dropShadow_77_721"/>
<feBlend mode="normal" in="SourceGraphic" in2="effect1_dropShadow_77_721" result="shape"/>
</filter>
</defs>
</svg>
