<svg width="207" height="95" viewBox="0 0 207 95" fill="none" xmlns="http://www.w3.org/2000/svg">
<g filter="url(#filter0_d_138_24)">
<rect x="5.33337" y="5" width="196.667" height="80" rx="18.2857" fill="#01BE29"/>
<rect x="3.04766" y="2.71429" width="201.238" height="84.5714" rx="20.5714" stroke="white" stroke-width="4.57143"/>
</g>
<rect x="5.33337" y="5" width="196.667" height="71.6667" rx="18.2857" fill="#06ED57"/>
<g filter="url(#filter1_d_138_24)">
<path d="M55.3588 39.8625C55.3588 39.8625 55.4648 39.8625 55.6769 39.8625C56.3696 39.8625 56.9457 39.707 57.4051 39.396C57.8717 39.085 58.1049 38.6432 58.1049 38.0707C58.1049 37.5264 57.8893 37.1058 57.4581 36.8089C57.027 36.5121 56.5145 36.3636 55.9208 36.3636C55.6875 36.3636 55.5143 36.3707 55.4012 36.3848C55.4012 36.6888 55.3942 37.226 55.38 37.9964C55.373 38.7598 55.3659 39.3819 55.3588 39.8625ZM55.4012 46.1605C55.4154 46.9098 55.4436 48.0478 55.486 49.5746H56.1858C56.9634 49.5746 57.5253 49.4332 57.8717 49.1505C58.2251 48.8607 58.4018 48.433 58.4018 47.8675C58.4018 47.3657 58.2215 46.9557 57.861 46.6376C57.5006 46.3195 57.0411 46.1605 56.4827 46.1605H55.4012ZM47.0357 42.7464C47.0357 41.3328 47.0499 39.3748 47.0781 36.8726C47.1064 34.3703 47.1205 32.4124 47.1205 30.9987C50.2519 30.518 53.0086 30.2777 55.3906 30.2777C56.3519 30.2777 57.1613 30.2954 57.8186 30.3307C58.4831 30.359 59.2005 30.4297 59.971 30.5428C60.7485 30.6488 61.3917 30.8043 61.9007 31.0093C62.4096 31.2143 62.9185 31.497 63.4275 31.8575C63.9364 32.218 64.3358 32.6562 64.6256 33.1722C64.9224 33.6882 65.1592 34.3208 65.3359 35.0701C65.5197 35.8194 65.6116 36.6782 65.6116 37.6466C65.6116 39.8731 64.7917 41.7003 63.1518 43.1281C64.3393 43.7784 65.2582 44.556 65.9085 45.4607C66.5588 46.3655 66.8839 47.3233 66.8839 48.3341C66.8839 49.2812 66.792 50.1365 66.6083 50.8999C66.4245 51.6562 66.17 52.3065 65.8449 52.8508C65.5268 53.3951 65.1168 53.8722 64.615 54.2822C64.1202 54.6851 63.5936 55.0102 63.0352 55.2576C62.4838 55.4979 61.8441 55.6958 61.1161 55.8514C60.388 55.9998 59.667 56.0987 58.9531 56.1482C58.2463 56.2048 57.4546 56.233 56.5781 56.233C53.5599 56.233 50.5487 56.0775 47.5446 55.7665C47.4245 55.7312 47.322 55.6676 47.2372 55.5757C47.1594 55.4767 47.1205 55.3707 47.1205 55.2576C47.1205 53.9499 47.1064 51.8966 47.0781 49.0974C47.0499 46.2983 47.0357 44.1813 47.0357 42.7464ZM70.572 43.2978C70.572 39.3394 70.6285 35.0984 70.7416 30.5746C72.0846 30.511 75.018 30.4791 79.5418 30.4791C82.7438 30.4791 85.2107 30.511 86.9425 30.5746C87.0556 30.5746 87.1546 30.617 87.2394 30.7018C87.3242 30.7866 87.3666 30.8856 87.3666 30.9987C87.3949 32.7234 87.409 33.9462 87.409 34.6672C87.409 35.7769 87.3949 36.816 87.3666 37.7844C86.172 37.8409 83.9243 37.8692 80.6233 37.8692C80.0296 37.8692 79.4924 37.8657 79.0117 37.8586C78.9976 38.8341 78.987 39.5762 78.9799 40.0852C81.5104 40.0993 83.2033 40.124 84.0586 40.1594C84.1717 40.1594 84.2706 40.2018 84.3554 40.2866C84.4403 40.3714 84.4827 40.4704 84.4827 40.5835C84.5039 41.7427 84.5145 42.8065 84.5145 43.7749C84.5145 44.6443 84.5039 45.588 84.4827 46.6058H78.9799C78.987 47.1006 78.9976 47.8357 79.0117 48.8112H79.5206C82.9842 48.8112 85.4864 48.8394 87.0273 48.896C87.1404 48.896 87.2394 48.9384 87.3242 49.0232C87.409 49.108 87.4514 49.207 87.4514 49.3201C87.4797 51.0448 87.4938 52.2676 87.4938 52.9886C87.4938 54.0984 87.4797 55.1374 87.4514 56.1058C86.1084 56.1694 83.6839 56.2012 80.178 56.2012C79.4782 56.2012 77.9868 56.1765 75.7037 56.127C73.4276 56.0846 71.915 56.0493 71.1657 56.021C71.0526 56.021 70.9537 55.9786 70.8688 55.8938C70.784 55.8089 70.7416 55.71 70.7416 55.5969C70.6285 50.2814 70.572 46.1817 70.572 43.2978ZM91.5636 43.2978C91.5636 39.3394 91.6201 35.0984 91.7332 30.5746C93.0762 30.511 94.2425 30.4791 95.2321 30.4791C96.0732 30.4791 97.2961 30.511 98.9006 30.5746C99.1056 30.5816 99.2611 30.723 99.3671 30.9987L103.757 41.8558L103.608 30.5746C104.958 30.511 106.195 30.4791 107.319 30.4791C108.422 30.4791 109.729 30.511 111.242 30.5746C111.362 30.5816 111.461 30.6276 111.539 30.7124C111.624 30.7902 111.666 30.8856 111.666 30.9987C111.779 36.3142 111.836 40.4139 111.836 43.2978C111.836 47.2561 111.779 51.4972 111.666 56.021C110.493 56.0846 109.397 56.1164 108.379 56.1164C107.171 56.1164 105.877 56.0846 104.499 56.021C104.287 56.0139 104.131 55.8726 104.032 55.5969L99.6428 44.7397L99.7912 56.021C98.4482 56.0846 97.2819 56.1164 96.2924 56.1164C95.1756 56.1164 93.7972 56.0846 92.1573 56.021C92.0372 56.0139 91.9347 55.9715 91.8498 55.8938C91.7721 55.8089 91.7332 55.71 91.7332 55.5969C91.6201 50.2814 91.5636 46.1817 91.5636 43.2978ZM115.089 55.6711C115.089 55.558 115.156 55.1162 115.291 54.3458C115.665 52.0203 116.093 49.6134 116.574 47.1253C117.054 44.6302 117.676 41.5377 118.44 37.848C119.203 34.1512 119.701 31.7267 119.935 30.5746C121.348 30.511 123.292 30.4791 125.766 30.4791C128.07 30.4791 130.085 30.511 131.81 30.5746C131.923 30.5746 132.029 30.617 132.128 30.7018C132.227 30.7796 132.287 30.8785 132.308 30.9987C132.619 32.5749 133.146 35.1514 133.888 38.728C134.637 42.3047 135.273 45.4678 135.796 48.2174C136.326 50.96 136.779 53.5612 137.153 56.021C135.817 56.0846 134.588 56.1164 133.464 56.1164C131.661 56.1164 130.276 56.0846 129.307 56.021C129.187 56.0139 129.078 55.9715 128.979 55.8938C128.887 55.8089 128.83 55.71 128.809 55.5969C128.491 53.9711 128.233 52.5575 128.035 51.3558H124.101C123.875 52.8685 123.603 54.4235 123.285 56.021C121.928 56.0846 120.758 56.1164 119.776 56.1164C118.602 56.1164 117.157 56.0846 115.439 56.021C115.333 56.021 115.248 55.9892 115.185 55.9256C115.121 55.8549 115.089 55.7701 115.089 55.6711ZM124.812 45.8424H127.197C127.028 44.6832 126.798 43.0327 126.508 40.891C126.218 38.7422 126.01 37.2224 125.883 36.3318C125.741 37.484 125.554 39.138 125.321 41.2939C125.088 43.4427 124.918 44.9589 124.812 45.8424ZM140.502 42.7464C140.502 41.3328 140.516 39.3748 140.545 36.8726C140.573 34.3703 140.587 32.4124 140.587 30.9987C142.001 30.7796 143.503 30.6064 145.093 30.4791C146.691 30.3448 148.087 30.2777 149.281 30.2777C150.313 30.2777 151.179 30.2954 151.879 30.3307C152.579 30.359 153.331 30.4297 154.137 30.5428C154.95 30.6488 155.618 30.8043 156.141 31.0093C156.664 31.2143 157.187 31.497 157.71 31.8575C158.233 32.218 158.64 32.6562 158.93 33.1722C159.226 33.6882 159.467 34.3208 159.651 35.0701C159.834 35.8194 159.926 36.6782 159.926 37.6466C159.926 39.1804 159.53 40.5305 158.739 41.6968C157.947 42.8631 156.844 43.7784 155.431 44.4429C156.392 44.7751 157.173 45.4537 157.774 46.4786C159.181 49.2424 160.304 52.4232 161.146 56.021C159.845 56.1765 158.364 56.2543 156.703 56.2543C155.501 56.2543 154.367 56.2189 153.3 56.1482C153.165 56.1412 153.035 56.0987 152.907 56.021C152.78 55.9432 152.695 55.8443 152.653 55.7241C151.274 51.5396 150.204 48.1609 149.44 45.588H148.878C148.892 46.3796 148.924 48.0018 148.974 50.4546C149.03 52.9073 149.062 54.7628 149.069 56.021C147.91 56.0705 146.669 56.0952 145.348 56.0952C144.153 56.0952 142.707 56.0705 141.011 56.021C140.891 56.021 140.788 55.9821 140.704 55.9044C140.626 55.8195 140.587 55.7171 140.587 55.5969C140.587 54.2892 140.573 52.1793 140.545 49.2671C140.516 46.3549 140.502 44.1813 140.502 42.7464ZM148.857 40.3714H149.578C150.25 40.3714 150.79 40.2053 151.2 39.8731C151.617 39.5338 151.826 39.0885 151.826 38.5372C151.826 37.8445 151.684 37.332 151.402 36.9998C151.119 36.6605 150.617 36.4909 149.896 36.4909C149.529 36.4909 149.189 36.5015 148.878 36.5227C148.864 38.1767 148.857 39.4596 148.857 40.3714Z" fill="white"/>
</g>
<defs>
<filter id="filter0_d_138_24" x="0.761963" y="0.428589" width="205.81" height="93.7143" filterUnits="userSpaceOnUse" color-interpolation-filters="sRGB">
<feFlood flood-opacity="0" result="BackgroundImageFix"/>
<feColorMatrix in="SourceAlpha" type="matrix" values="0 0 0 0 0 0 0 0 0 0 0 0 0 0 0 0 0 0 127 0" result="hardAlpha"/>
<feOffset dy="4.57143"/>
<feComposite in2="hardAlpha" operator="out"/>
<feColorMatrix type="matrix" values="0 0 0 0 0 0 0 0 0 0 0 0 0 0 0 0 0 0 0.15 0"/>
<feBlend mode="normal" in2="BackgroundImageFix" result="effect1_dropShadow_138_24"/>
<feBlend mode="normal" in="SourceGraphic" in2="effect1_dropShadow_138_24" result="shape"/>
</filter>
<filter id="filter1_d_138_24" x="47.0358" y="30.2777" width="114.11" height="28.2623" filterUnits="userSpaceOnUse" color-interpolation-filters="sRGB">
<feFlood flood-opacity="0" result="BackgroundImageFix"/>
<feColorMatrix in="SourceAlpha" type="matrix" values="0 0 0 0 0 0 0 0 0 0 0 0 0 0 0 0 0 0 127 0" result="hardAlpha"/>
<feOffset dy="2.28571"/>
<feComposite in2="hardAlpha" operator="out"/>
<feColorMatrix type="matrix" values="0 0 0 0 0 0 0 0 0 0 0 0 0 0 0 0 0 0 0.15 0"/>
<feBlend mode="normal" in2="BackgroundImageFix" result="effect1_dropShadow_138_24"/>
<feBlend mode="normal" in="SourceGraphic" in2="effect1_dropShadow_138_24" result="shape"/>
</filter>
</defs>
</svg>
