<svg width="807" height="158" viewBox="0 0 807 158" fill="none" xmlns="http://www.w3.org/2000/svg">
<g filter="url(#filter0_d_77_700)">
<path fill-rule="evenodd" clip-rule="evenodd" d="M27.2081 3H148.359H363.025H444.308H530.134H780.125C804.1 3 812.573 34.7611 791.785 46.7036C776.122 55.7016 776.122 78.2984 791.785 87.2964C812.573 99.2389 804.1 131 780.125 131H530.134H444.308H363.025H184.359H27.2081C3.23344 131 -5.24016 99.2389 15.5484 87.2964C31.2117 78.2984 31.2117 55.7016 15.5484 46.7036C-5.24016 34.7611 3.23344 3 27.2081 3Z" fill="#FE4B60"/>
<path d="M791.785 46.7036L790.291 44.1023L791.785 46.7036ZM791.785 87.2964L790.291 89.8977L791.785 87.2964ZM15.5484 87.2964L14.054 84.6951H14.054L15.5484 87.2964ZM15.5484 46.7036L14.054 49.3049L14.054 49.3049L15.5484 46.7036ZM148.359 0H27.2081V6H148.359V0ZM363.025 0H148.359V6H363.025V0ZM444.308 0H363.025V6H444.308V0ZM530.134 0H444.308V6H530.134V0ZM530.134 6H780.125V0H530.134V6ZM780.125 6C801.027 6 808.415 33.6904 790.291 44.1023L793.279 49.3049C816.732 35.8318 807.173 0 780.125 0V6ZM790.291 44.1023C772.62 54.2536 772.62 79.7464 790.291 89.8977L793.279 84.6951C779.624 76.8503 779.624 57.1497 793.279 49.3049L790.291 44.1023ZM790.291 89.8977C808.415 100.31 801.027 128 780.125 128V134C807.173 134 816.732 98.1682 793.279 84.6951L790.291 89.8977ZM780.125 128H530.134V134H780.125V128ZM444.308 134H530.134V128H444.308V134ZM363.025 134H444.308V128H363.025V134ZM184.359 134H363.025V128H184.359V134ZM27.2081 134H184.359V128H27.2081V134ZM14.054 84.6951C-9.39893 98.1682 0.160703 134 27.2081 134V128C6.30618 128 -1.08139 100.31 17.0428 89.8977L14.054 84.6951ZM14.054 49.3049C27.7098 57.1497 27.7098 76.8503 14.054 84.6951L17.0428 89.8977C34.7135 79.7464 34.7135 54.2536 17.0428 44.1023L14.054 49.3049ZM27.2081 0C0.160704 0 -9.39893 35.8318 14.054 49.3049L17.0428 44.1023C-1.08139 33.6904 6.30618 6 27.2081 6V0ZM125.149 6H148.359V0H125.149V6Z" fill="#ED0F29"/>
</g>
<defs>
<filter id="filter0_d_77_700" x="0.756714" y="0" width="805.82" height="158" filterUnits="userSpaceOnUse" color-interpolation-filters="sRGB">
<feFlood flood-opacity="0" result="BackgroundImageFix"/>
<feColorMatrix in="SourceAlpha" type="matrix" values="0 0 0 0 0 0 0 0 0 0 0 0 0 0 0 0 0 0 127 0" result="hardAlpha"/>
<feOffset dy="24"/>
<feComposite in2="hardAlpha" operator="out"/>
<feColorMatrix type="matrix" values="0 0 0 0 0 0 0 0 0 0 0 0 0 0 0 0 0 0 0.15 0"/>
<feBlend mode="normal" in2="BackgroundImageFix" result="effect1_dropShadow_77_700"/>
<feBlend mode="normal" in="SourceGraphic" in2="effect1_dropShadow_77_700" result="shape"/>
</filter>
</defs>
</svg>
