<svg width="334" height="85" viewBox="0 0 334 85" fill="none" xmlns="http://www.w3.org/2000/svg">
<g filter="url(#filter0_d_77_461)">
<path fill-rule="evenodd" clip-rule="evenodd" d="M13.5243 1H64.3586H153.134H180.866H220.317H320.475C331.699 1 336.78 15.0335 328.158 22.2187L319.894 29.1054C314.137 33.9029 314.137 42.7452 319.894 47.5427L328.158 54.4295C336.78 61.6146 331.699 75.6481 320.475 75.6481H220.317H180.866H153.134H76.3586H13.5243C2.30071 75.6481 -2.7801 61.6146 5.84208 54.4295L14.1062 47.5427C19.8632 42.7452 19.8632 33.9029 14.1062 29.1054L5.84207 22.2187C-2.78011 15.0335 2.30075 1 13.5243 1Z" fill="#55EEFF"/>
<path d="M328.158 22.2187L328.798 22.9869L328.158 22.2187ZM319.894 29.1054L320.534 29.8736V29.8736L319.894 29.1054ZM319.894 47.5427L319.253 48.3109L319.894 47.5427ZM328.158 54.4295L328.798 53.6612V53.6612L328.158 54.4295ZM5.84208 54.4295L5.2019 53.6612H5.2019L5.84208 54.4295ZM14.1062 47.5427L14.7464 48.3109L14.1062 47.5427ZM14.1062 29.1054L13.466 29.8736L14.1062 29.1054ZM5.84207 22.2187L5.20188 22.9869L5.84207 22.2187ZM64.3586 0H13.5243V2H64.3586V0ZM153.134 0H64.3586V2H153.134V0ZM180.866 0H153.134V2H180.866V0ZM220.317 0H180.866V2H220.317V0ZM220.317 2H320.475V0H220.317V2ZM320.475 2C330.764 2 335.421 14.864 327.518 21.4504L328.798 22.9869C338.139 15.203 332.634 0 320.475 0V2ZM327.518 21.4504L319.253 28.3372L320.534 29.8736L328.798 22.9869L327.518 21.4504ZM319.253 28.3372C313.017 33.5345 313.017 43.1136 319.253 48.3109L320.534 46.7745C315.256 42.3768 315.256 34.2714 320.534 29.8736L319.253 28.3372ZM319.253 48.3109L327.518 55.1977L328.798 53.6612L320.534 46.7745L319.253 48.3109ZM327.518 55.1977C335.421 61.7841 330.764 74.6481 320.475 74.6481V76.6481C332.634 76.6481 338.139 61.4452 328.798 53.6612L327.518 55.1977ZM320.475 74.6481H220.317V76.6481H320.475V74.6481ZM180.866 76.6481H220.317V74.6481H180.866V76.6481ZM153.134 76.6481H180.866V74.6481H153.134V76.6481ZM76.3586 76.6481H153.134V74.6481H76.3586V76.6481ZM13.5243 76.6481H76.3586V74.6481H13.5243V76.6481ZM5.2019 53.6612C-4.13879 61.4452 1.36541 76.6481 13.5243 76.6481V74.6481C3.23601 74.6481 -1.4214 61.7841 6.48227 55.1977L5.2019 53.6612ZM13.466 46.7745L5.2019 53.6612L6.48227 55.1977L14.7464 48.3109L13.466 46.7745ZM13.466 29.8736C18.7433 34.2714 18.7433 42.3768 13.466 46.7745L14.7464 48.3109C20.9832 43.1136 20.9832 33.5345 14.7463 28.3372L13.466 29.8736ZM5.20188 22.9869L13.466 29.8736L14.7463 28.3372L6.48225 21.4504L5.20188 22.9869ZM13.5243 0C1.36545 0 -4.13882 15.203 5.20188 22.9869L6.48225 21.4504C-1.42141 14.864 3.23604 2 13.5243 2V0ZM55.0276 2H64.3586V0H55.0276V2Z" fill="#098AEE"/>
</g>
<defs>
<filter id="filter0_d_77_461" x="0.498383" y="0" width="333.003" height="84.6482" filterUnits="userSpaceOnUse" color-interpolation-filters="sRGB">
<feFlood flood-opacity="0" result="BackgroundImageFix"/>
<feColorMatrix in="SourceAlpha" type="matrix" values="0 0 0 0 0 0 0 0 0 0 0 0 0 0 0 0 0 0 127 0" result="hardAlpha"/>
<feOffset dy="8"/>
<feComposite in2="hardAlpha" operator="out"/>
<feColorMatrix type="matrix" values="0 0 0 0 0 0 0 0 0 0 0 0 0 0 0 0 0 0 0.15 0"/>
<feBlend mode="normal" in2="BackgroundImageFix" result="effect1_dropShadow_77_461"/>
<feBlend mode="normal" in="SourceGraphic" in2="effect1_dropShadow_77_461" result="shape"/>
</filter>
</defs>
</svg>
